<?xml version="1.0" standalone="no"?><!DOCTYPE svg PUBLIC "-//W3C//DTD SVG 1.1//EN" "http://www.w3.org/Graphics/SVG/1.1/DTD/svg11.dtd"><svg t="1545642266393" class="icon" style="" viewBox="0 0 1024 1024" version="1.1" xmlns="http://www.w3.org/2000/svg" p-id="1894" id="mx_n_1545642266395" xmlns:xlink="http://www.w3.org/1999/xlink" width="200" height="200"><defs><style type="text/css"></style></defs><path d="M268 352c1.68-134.12 82.16-244 245.64-244S751.12 218.08 752 352z" fill="#C93E4F" p-id="1895"></path><path d="M762.04 362h-504v-10.12c0.88-72 23.28-133.92 64.8-178.96C368 124 434 98 513.68 98s144.28 26 187.64 75.16c39.24 44.48 60 106.32 60.68 178.76z m-483.76-20h463.52c-4.72-140.48-89.36-224-228-224-110.4 0-228.84 59.08-235.52 224z" fill="#600000" p-id="1896"></path><path d="M541.48 973.16c103.36 0 170.64-14.68 219.56-52.28s89.76-94.32 89.76-187.44a280 280 0 0 0-44-150.36c-44-70-138.24-107.28-267.52-101.04-84.8 4-158 17.36-203.72 51.76-68 51.2-103.2 128.28-103.2 199.64 0 77.72 41.2 149.36 103.2 187.44 47.4 29.28 118.84 52.28 205.92 52.28z" fill="#FFFFFF" p-id="1897"></path><path d="M541.48 983.16c-107.8 0-178.68-33.68-211.36-53.76-66.6-40.92-108-116-108-196s40-157.16 107.2-207.64c42.28-32 108.76-48.92 209.24-53.76 131.52-6.32 229.72 31.2 276.48 105.72a289.32 289.32 0 0 1 45.72 155.68c0 83.08-30.64 147-93.64 195.4-49.56 38.08-117.04 54.36-225.64 54.36z m25.36-491.8q-13.4 0-27.28 0.68c-96.28 4.64-159.24 20.44-198.2 49.72-62.12 46.76-99.2 118.4-99.2 191.68a210.48 210.48 0 0 0 98.44 178.92c30.84 18.96 98 50.8 200.88 50.8 104 0 167.68-15.04 213.48-50.2 57.76-44.32 85.84-103.08 85.84-179.52a269.36 269.36 0 0 0-42.68-145.04c-39.52-63.04-121.12-97.04-231.28-97.04z" fill="#600000" p-id="1898"></path><path d="M514.96 502.28c96 0 171.76-38.36 177.08-137.96S643.12 180 514.96 180s-188 84.6-182.64 184.32 86.52 137.96 182.64 137.96z" fill="#FFFFFF" p-id="1899"></path><path d="M514.96 512.28c-117.56 0-187.76-53.72-192.64-147.44-2.88-55.4 13.68-105.08 46.68-139.8 34.2-36 84.64-55.04 145.96-55.04 59.64 0 108.48 18.28 141.28 52.84s48.88 84.84 45.8 142.04c-5.12 95.12-71.56 147.4-187.08 147.4z m0-322.28c-55.68 0-101.12 16.88-131.44 48.8-29.2 30.72-43.8 75.12-41.24 125.2 2.52 48 28.24 128.48 172.68 128.48 132.4 0 164-69.88 167.12-128.48 2.76-51.64-11.56-96.8-40.36-127.2s-71.96-46.8-126.76-46.8z" fill="#600000" p-id="1900"></path><path d="M394.32 318.6a10 10 0 1 1 20 0.32c-0.88 52 30.72 79.76 99.04 84.96a112.88 112.88 0 0 0 54.44-11.56c25.44-12.96 40.36-35.28 40.96-70a10 10 0 0 1 20 0.36c-0.76 42.36-20 71.24-52 87.44A132.72 132.72 0 0 1 512 424c-78.24-6.12-118.8-41.76-117.68-105.4zM445.48 263.4a10 10 0 1 1 3.32-19.72l24 4a10 10 0 0 1-3.32 19.72z" fill="#600000" p-id="1901"></path><path d="M580.8 263.4a10 10 0 1 0-3.32-19.72l-24 4a10 10 0 0 0 3.32 19.72z" fill="#600000" p-id="1902"></path><path d="M510 280h4a10 10 0 0 1 10 10 10 10 0 0 1-10 10h-4a10 10 0 0 1-10-10 10 10 0 0 1 10-10zM375.36 464.36q-22.28 17.08-26.92 34.04a63.72 63.72 0 0 0 0 34q52.44 45.12 166.28 45.12t162.44-45.12a50.16 50.16 0 0 0 5.16-34q-3.48-18-33.88-34.04-42.12 39.64-133.72 39.64t-139.36-39.64z" fill="#C93E4F" p-id="1903"></path><path d="M514.72 587.52c-78 0-136-16-172.8-47.52l-2.32-2-0.8-2.96a73.56 73.56 0 0 1 0-39.28c3.72-13.6 13.68-26.48 30.48-39.32l6.32-4.84 6.16 5.08c29.8 24.76 74.52 37.32 132.96 37.32s100.84-12.4 126.84-36.92l5.2-4.88 6.32 3.32c23.36 12.32 36 25.72 39.04 41a60 60 0 0 1-6.16 40.6l-0.8 1.48-1.2 1.12c-34.2 31.72-91.12 47.8-169.24 47.8z m-157.36-60.68c33.16 27 86.04 40.68 157.36 40.68s123.8-13.88 154.36-41.28a40 40 0 0 0 3.4-25.96c-1.44-7.6-9.28-15.76-22.76-23.72-30 24.84-75.36 37.44-135 37.44s-106-12.4-139.24-36.84c-9.48 8.24-15.32 16.24-17.4 24a53.16 53.16 0 0 0-0.72 25.68z" fill="#600000" p-id="1904"></path><path d="M292 310a38 38 0 0 1 38 38v24a38 38 0 0 1-38 38 38 38 0 0 1-38-38v-24a38 38 0 0 1 38-38z" fill="#F4C95E" p-id="1905"></path><path d="M292 420a48 48 0 0 1-48-48v-24a48 48 0 0 1 96 0v24a48 48 0 0 1-48 48z m0-100a28 28 0 0 0-28 28v24a28 28 0 0 0 56 0v-24a28 28 0 0 0-28-28z" fill="#600000" p-id="1906"></path><path d="M732 302a38 38 0 0 1 38 38v24a38 38 0 0 1-38 38 38 38 0 0 1-38-38v-24a38 38 0 0 1 38-38z" fill="#F4C95E" p-id="1907"></path><path d="M732 412a48 48 0 0 1-48-48v-24a48 48 0 0 1 96 0v24a48 48 0 0 1-48 48z m0-100a28 28 0 0 0-28 28v24a28 28 0 0 0 56 0v-24a28 28 0 0 0-28-28z" fill="#600000" p-id="1908"></path><path d="M608 478.32q70.52-6.4 70.48 150 0 123.12-14.04 184.56a24 24 0 0 0 18.08 28.72 22.56 22.56 0 0 0 6.12 0.6q78.72-2.64 101.84-45.32c27.6-51 10.8-153.2 0-204-16.44-77.2-48.24-125.56-73.24-140Q653.28 416 608 478.32z" fill="#C93E4F" p-id="1909"></path><path d="M688 852.2a34.48 34.48 0 0 1-7.56-0.84 34 34 0 0 1-25.56-40.72c9.12-40 13.76-101.4 13.76-182.32 0-68.52-10.12-112.56-30.16-130.8a36.36 36.36 0 0 0-29.4-9.24l-22 2.04 13-17.88c33.08-45.48 75.4-55.24 122.32-28 24.6 14.2 60 61.08 78 146.56 12 56 27.64 157.96-0.96 210.84-17.16 31.68-54.28 48.68-110.28 50.56z m-60-382.36a54.36 54.36 0 0 1 23.64 12.88c24.68 22.52 36.68 70.16 36.68 145.6 0 82.4-4.8 145.24-14.28 186.76a14.04 14.04 0 0 0 10.52 16.8 15.68 15.68 0 0 0 3.6 0.32c48.44-1.6 80-15.08 93.36-40 18.68-34.52 18.32-106.4-1-197.16-15.72-73.96-45.72-120.28-68.44-133.4-32.6-18.96-59.68-16.44-84.08 8.2z" fill="#600000" p-id="1910"></path><path d="M526 82m-26 0a26 26 0 1 0 52 0 26 26 0 1 0-52 0Z" fill="#F4C95E" p-id="1911"></path><path d="M526 118a36 36 0 1 1 36-36 36 36 0 0 1-36 36z m0-52a16 16 0 1 0 16 16 16 16 0 0 0-16-16z" fill="#600000" p-id="1912"></path></svg>